<svg width="205" height="36" viewBox="0 0 205 36" fill="none" xmlns="http://www.w3.org/2000/svg">
<path d="M0.523438 35V0.625H7.59375L10.7578 17.0898V0.625H17.3984V35H10.6797L7.24219 17.8125V35H0.523438ZM27.3312 35.3125C25.2479 35.3125 23.5878 34.9219 22.3508 34.1406C21.1138 33.3594 20.2284 32.2331 19.6945 30.7617C19.1607 29.2904 18.8937 27.5195 18.8937 25.4492V13.6719C18.8937 10.9505 19.675 8.89323 21.2375 7.5C22.8 6.09375 24.9484 5.39062 27.6828 5.39062C33.3078 5.39062 36.1203 8.15104 36.1203 13.6719V15.8008C36.1203 18.3789 36.0943 20.1107 36.0422 20.9961H25.8859V26.6602C25.8859 27.181 25.9185 27.6953 25.9836 28.2031C26.0487 28.6979 26.1919 29.1081 26.4133 29.4336C26.6477 29.7591 27.0187 29.9219 27.5266 29.9219C28.2557 29.9219 28.7115 29.6094 28.8937 28.9844C29.076 28.3464 29.1672 27.5195 29.1672 26.5039V23.6914H36.1203V25.3516C36.1203 27.5391 35.8469 29.375 35.3 30.8594C34.7661 32.3307 33.8547 33.444 32.5656 34.1992C31.2896 34.9414 29.5448 35.3125 27.3312 35.3125ZM25.8469 17.5195H29.1672V13.5742C29.1672 12.5195 29.037 11.7643 28.7766 11.3086C28.5161 10.8398 28.1255 10.6055 27.6047 10.6055C27.0448 10.6055 26.6086 10.8268 26.2961 11.2695C25.9966 11.7122 25.8469 12.4805 25.8469 13.5742V17.5195ZM40.5258 35L36.9906 5.70312H42.9867L44.9203 21.4453L46.6195 5.70312H53.3187L55.3305 21.4453L56.9516 5.70312H62.9672L59.393 35H52.0297L49.9203 18.3789L48.0844 35H40.5258ZM72.4031 35V0.625H79.4734L82.6375 17.0898V0.625H89.2781V35H82.5594L79.1219 17.8125V35H72.4031ZM91.6523 35V12.3242H90.3828V6.99219H91.6523V5C91.6523 1.84896 93.2279 0.273438 96.3789 0.273438C97.8633 0.273438 99.0612 0.46224 99.9727 0.839844V5.15625C99.6471 5.09115 99.4323 5.05859 99.3281 5.05859C98.9245 5.05859 98.6771 5.20833 98.5859 5.50781C98.4948 5.79427 98.4492 6.16536 98.4492 6.62109V6.99219H99.9727V12.4023H98.5859V35H91.6523ZM107.034 35.3125C105.146 35.3125 103.87 34.9154 103.206 34.1211C102.555 33.3138 102.23 32.0833 102.23 30.4297V12.168H100.257V6.83594H102.23V0.625H109.027V6.83594H110.999V12.168H109.027V28.7891C109.027 29.2708 109.105 29.6094 109.261 29.8047C109.417 30 109.717 30.0977 110.159 30.0977C110.472 30.0977 110.752 30.0716 110.999 30.0195V34.7852C110.843 34.8372 110.355 34.9349 109.534 35.0781C108.714 35.2344 107.881 35.3125 107.034 35.3125ZM128.345 35.3125C125.858 35.3125 123.853 34.5378 122.33 32.9883C120.819 31.4388 120.064 29.2708 120.064 26.4844V10.625C120.064 7.29167 120.722 4.73958 122.037 2.96875C123.365 1.19792 125.52 0.3125 128.502 0.3125C130.129 0.3125 131.574 0.611979 132.838 1.21094C134.114 1.8099 135.116 2.70833 135.845 3.90625C136.574 5.09115 136.939 6.58854 136.939 8.39844V14.3359H130.103V9.25781C130.103 8.22917 129.973 7.53906 129.713 7.1875C129.452 6.82292 129.048 6.64062 128.502 6.64062C127.864 6.64062 127.434 6.875 127.213 7.34375C126.991 7.79948 126.88 8.41146 126.88 9.17969V26.3867C126.88 27.3372 127.017 28.0078 127.291 28.3984C127.577 28.7891 127.981 28.9844 128.502 28.9844C129.088 28.9844 129.498 28.7435 129.732 28.2617C129.979 27.7799 130.103 27.1549 130.103 26.3867V20.1953H137.017V26.6992C137.017 29.7201 136.255 31.9141 134.732 33.2812C133.209 34.6354 131.08 35.3125 128.345 35.3125ZM143.337 35.3125C141.709 35.3125 140.466 34.9349 139.606 34.1797C138.76 33.4245 138.18 32.3893 137.868 31.0742C137.555 29.7591 137.399 28.2682 137.399 26.6016C137.399 24.8177 137.575 23.3594 137.927 22.2266C138.278 21.0807 138.877 20.1432 139.723 19.4141C140.583 18.6849 141.761 18.0664 143.259 17.5586L147.595 16.0742V13.0664C147.595 11.4909 147.08 10.7031 146.052 10.7031C145.114 10.7031 144.645 11.3411 144.645 12.6172V14.375H137.848C137.835 14.2708 137.829 14.1406 137.829 13.9844C137.829 13.8151 137.829 13.6263 137.829 13.418C137.829 10.5013 138.512 8.4375 139.88 7.22656C141.26 6.0026 143.441 5.39062 146.423 5.39062C147.985 5.39062 149.385 5.67057 150.622 6.23047C151.859 6.77734 152.835 7.59115 153.552 8.67188C154.281 9.7526 154.645 11.0872 154.645 12.6758V35H147.692V31.5234C147.354 32.7474 146.794 33.6849 146.012 34.3359C145.231 34.987 144.339 35.3125 143.337 35.3125ZM146.091 29.8828C146.664 29.8828 147.054 29.6419 147.262 29.1602C147.471 28.6784 147.575 28.1576 147.575 27.5977V19.4336C146.611 19.8242 145.863 20.319 145.329 20.918C144.795 21.5039 144.528 22.3698 144.528 23.5156V27.2852C144.528 29.0169 145.049 29.8828 146.091 29.8828ZM156.141 35V5.70312H163.25V8.96484C163.589 7.83203 164.188 6.94661 165.047 6.30859C165.906 5.67057 166.987 5.35156 168.289 5.35156V11.1914C167.716 11.1914 167.033 11.2565 166.238 11.3867C165.444 11.5039 164.747 11.6732 164.148 11.8945C163.549 12.1029 163.25 12.3372 163.25 12.5977V35H156.141ZM174.57 35.3125C173.215 35.3125 172.141 35.0651 171.347 34.5703C170.553 34.0755 169.96 33.3919 169.57 32.5195C169.179 31.6471 168.918 30.625 168.788 29.4531C168.671 28.2812 168.613 27.0247 168.613 25.6836V12.9492C168.613 10.6966 169.01 8.8737 169.804 7.48047C170.611 6.08724 171.972 5.39062 173.886 5.39062C175.305 5.39062 176.392 5.69661 177.148 6.30859C177.916 6.90755 178.508 7.7474 178.925 8.82812V0.625H186.034V35H178.925V31.8945C178.534 32.9492 178.014 33.7826 177.363 34.3945C176.724 35.0065 175.793 35.3125 174.57 35.3125ZM177.245 29.8438C177.909 29.8438 178.352 29.5768 178.573 29.043C178.808 28.5091 178.925 27.5521 178.925 26.1719V13.8477C178.925 13.1576 178.821 12.4805 178.613 11.8164C178.417 11.1393 177.974 10.8008 177.284 10.8008C176.529 10.8008 176.054 11.1198 175.859 11.7578C175.663 12.3958 175.566 13.0924 175.566 13.8477V26.1719C175.566 28.6198 176.126 29.8438 177.245 29.8438ZM195.557 35.3125C189.776 35.3125 186.885 32.3828 186.885 26.5234V24.1992H193.916V27.6367C193.916 28.3008 194.047 28.8216 194.307 29.1992C194.567 29.5768 194.984 29.7656 195.557 29.7656C196.573 29.7656 197.08 29.0039 197.08 27.4805C197.08 26.2044 196.814 25.2539 196.28 24.6289C195.746 23.9909 195.095 23.3789 194.327 22.793L190.596 19.9219C189.424 19.0104 188.532 18.0469 187.92 17.0312C187.308 16.0156 187.002 14.6029 187.002 12.793C187.002 11.1133 187.399 9.72656 188.194 8.63281C189.001 7.53906 190.062 6.72526 191.377 6.19141C192.705 5.65755 194.138 5.39062 195.674 5.39062C201.351 5.39062 204.19 8.22266 204.19 13.8867V14.4336H196.963V13.3203C196.963 12.7344 196.859 12.168 196.651 11.6211C196.455 11.0742 196.065 10.8008 195.479 10.8008C194.489 10.8008 193.995 11.3216 193.995 12.3633C193.995 13.418 194.411 14.2448 195.245 14.8438L199.58 18.0078C200.935 18.9844 202.067 20.1432 202.979 21.4844C203.903 22.8255 204.366 24.6094 204.366 26.8359C204.366 29.5964 203.578 31.6992 202.002 33.1445C200.44 34.5898 198.291 35.3125 195.557 35.3125Z" fill="#272727"/>
</svg>
