<svg width="144" height="23" viewBox="0 0 144 23" fill="none" xmlns="http://www.w3.org/2000/svg">
<path d="M0.952148 22V0.515625H5.37109L7.34863 10.8062V0.515625H11.499V22H7.2998L5.15137 11.2578V22H0.952148ZM13.4033 22V0.515625H21.9971V4.66602H17.7734V8.85303H21.8262V12.8936H17.7734V17.813H22.2778V22H13.4033ZM25.3906 22L23.0835 0.515625H27.2827L28.4668 14.0776L29.6753 0.515625H33.6792L34.8267 14.0776L35.9741 0.515625H40.2222L37.8784 22H32.7271L31.6528 11.6606L30.6274 22H25.3906ZM47.3633 22V0.515625H51.7822L53.7598 10.8062V0.515625H57.9102V22H53.7109L51.5625 11.2578V22H47.3633ZM59.8145 22V0.515625H68.4082V4.70264H64.1357V8.12061H68.1885V12.2588H64.1357V22H59.8145ZM71.6431 22V4.6416H69.0918V0.515625H78.4912V4.6416H75.9399V22H71.6431ZM90.5518 22.1953C88.9974 22.1953 87.7441 21.7111 86.792 20.7427C85.848 19.7743 85.376 18.4193 85.376 16.6777V6.76562C85.376 4.68229 85.7869 3.08724 86.6089 1.98047C87.439 0.873698 88.7858 0.320312 90.6494 0.320312C91.6667 0.320312 92.57 0.507487 93.3594 0.881836C94.1569 1.25618 94.7835 1.81771 95.2393 2.56641C95.695 3.30697 95.9229 4.24284 95.9229 5.37402V9.08496H91.6504V5.91113C91.6504 5.26823 91.569 4.83691 91.4062 4.61719C91.2435 4.38932 90.9912 4.27539 90.6494 4.27539C90.2507 4.27539 89.9821 4.42188 89.8438 4.71484C89.7054 4.99967 89.6362 5.38216 89.6362 5.8623V16.6167C89.6362 17.2108 89.7217 17.6299 89.8926 17.874C90.0716 18.1182 90.3239 18.2402 90.6494 18.2402C91.0156 18.2402 91.272 18.0897 91.4185 17.7886C91.5731 17.4875 91.6504 17.0968 91.6504 16.6167V12.7471H95.9717V16.812C95.9717 18.7 95.4956 20.0713 94.5435 20.9258C93.5913 21.7721 92.2607 22.1953 90.5518 22.1953ZM96.8262 22L98.9014 0.515625H106.189L108.228 22H104.163L103.857 18.5332H101.27L101.001 22H96.8262ZM101.575 15.103H103.528L102.588 4.17773H102.393L101.575 15.103ZM109.546 22V0.515625H116.138C117.236 0.515625 118.066 0.767904 118.628 1.27246C119.189 1.76888 119.564 2.46875 119.751 3.37207C119.946 4.26725 120.044 5.32113 120.044 6.53369C120.044 7.70557 119.893 8.64144 119.592 9.34131C119.299 10.0412 118.742 10.5254 117.92 10.7939C118.595 10.9323 119.067 11.27 119.336 11.8071C119.613 12.3361 119.751 13.0238 119.751 13.8701V22H115.515V13.5894C115.515 12.9627 115.385 12.5762 115.125 12.4297C114.872 12.2751 114.461 12.1978 113.892 12.1978V22H109.546ZM113.916 8.47461H114.954C115.548 8.47461 115.845 7.82764 115.845 6.53369C115.845 5.69548 115.78 5.14616 115.649 4.88574C115.519 4.62533 115.275 4.49512 114.917 4.49512H113.916V8.47461ZM121.46 22V0.515625H127.368C128.914 0.515625 130.078 0.94694 130.859 1.80957C131.641 2.66406 132.031 3.91732 132.031 5.56934V15.6279C132.031 17.6624 131.673 19.2331 130.957 20.3398C130.249 21.4466 129.004 22 127.222 22H121.46ZM125.781 18.2036H126.526C127.315 18.2036 127.71 17.8211 127.71 17.0562V5.97217C127.71 5.25602 127.612 4.79622 127.417 4.59277C127.23 4.38118 126.843 4.27539 126.257 4.27539H125.781V18.2036ZM138.892 22.1953C136.93 22.1953 135.514 21.707 134.644 20.7305C133.781 19.7539 133.35 18.1995 133.35 16.0674V13.9678H137.598V16.6533C137.598 17.1497 137.671 17.5404 137.817 17.8252C137.972 18.1019 138.236 18.2402 138.611 18.2402C139.001 18.2402 139.27 18.1263 139.417 17.8984C139.571 17.6706 139.648 17.2962 139.648 16.7754C139.648 16.1162 139.583 15.5669 139.453 15.1274C139.323 14.6799 139.095 14.2567 138.77 13.8579C138.452 13.451 138.009 12.979 137.439 12.4419L135.51 10.6108C134.07 9.25179 133.35 7.69743 133.35 5.94775C133.35 4.1167 133.773 2.72103 134.619 1.76074C135.474 0.800456 136.707 0.320312 138.318 0.320312C140.287 0.320312 141.683 0.845215 142.505 1.89502C143.335 2.94482 143.75 4.53988 143.75 6.68018H139.38V5.20312C139.38 4.91016 139.294 4.68229 139.124 4.51953C138.961 4.35677 138.737 4.27539 138.452 4.27539C138.11 4.27539 137.858 4.37305 137.695 4.56836C137.541 4.75553 137.463 4.99967 137.463 5.30078C137.463 5.60189 137.545 5.92741 137.708 6.27734C137.87 6.62728 138.192 7.03011 138.672 7.48584L141.15 9.86621C141.646 10.3382 142.102 10.8387 142.517 11.3677C142.932 11.8885 143.266 12.4989 143.518 13.1987C143.77 13.8905 143.896 14.7368 143.896 15.7378C143.896 17.756 143.522 19.3389 142.773 20.4863C142.033 21.6257 140.739 22.1953 138.892 22.1953Z" fill="#272727"/>
</svg>
