<svg width="40" height="40" viewBox="0 0 40 40" fill="none" xmlns="http://www.w3.org/2000/svg">
<g clip-path="url(#clip0_749_2052)">
<path d="M21.4887 5.98359L24.8003 13.0169C25.0499 13.5336 25.5159 13.9003 26.0817 13.9836L33.5035 15.1169C34.8847 15.3336 35.4505 17.1169 34.4354 18.1336L29.0604 23.617C28.661 24.017 28.478 24.6169 28.5778 25.1836L29.8425 32.9169C30.0755 34.3669 28.6277 35.4669 27.3797 34.7836L20.7399 31.1336C20.2406 30.8669 19.6582 30.8669 19.159 31.1336L12.5192 34.7836C11.2711 35.4669 9.8234 34.3669 10.0564 32.9169L11.3211 25.1836C11.4209 24.6169 11.2379 24.017 10.8385 23.617L5.46345 18.1336C4.46499 17.1169 5.01413 15.3169 6.39534 15.1169L13.8172 13.9836C14.3664 13.9003 14.849 13.5336 15.0986 13.0169L18.4101 5.98359C19.0259 4.66693 20.8231 4.66693 21.4388 5.98359H21.4887Z" fill="#F54A14" stroke="#F54A14" stroke-width="1.5" stroke-linecap="round" stroke-linejoin="round"/>
</g>
<defs>
<clipPath id="clip0_749_2052">
<rect width="40" height="40" fill="white"/>
</clipPath>
</defs>
</svg>
